<?xml version="1.0" standalone="no"?>
<!DOCTYPE svg PUBLIC "-//W3C//DTD SVG 20010904//EN"
 "http://www.w3.org/TR/2001/REC-SVG-20010904/DTD/svg10.dtd">
<svg version="1.0" xmlns="http://www.w3.org/2000/svg"
 width="260.000000pt" height="260.000000pt" viewBox="0 0 260.000000 260.000000"
 preserveAspectRatio="xMidYMid meet">
<metadata>
Created by potrace 1.14, written by Peter Selinger 2001-2017
</metadata>
<g transform="translate(0.000000,260.000000) scale(0.100000,-0.100000)"
fill="#000000" stroke="none">
<path d="M747 1739 c-58 -14 -113 -46 -141 -82 -95 -124 -64 -302 62 -366 47
-23 68 -28 179 -41 147 -16 198 -50 198 -130 0 -49 -28 -88 -78 -111 -89 -40
-192 -15 -245 61 -87 124 -229 40 -148 -88 35 -56 87 -97 153 -122 84 -32 233
-26 315 12 129 60 178 130 178 252 -1 162 -96 245 -309 266 -153 16 -191 36
-191 99 0 74 55 111 165 111 74 0 119 -16 173 -60 42 -35 90 -40 115 -12 55
61 -36 173 -168 207 -64 16 -197 18 -258 4z"/>
<path d="M1546 1725 c-134 -37 -216 -198 -216 -426 0 -217 77 -372 217 -436
47 -22 66 -25 136 -22 66 3 93 10 139 33 l57 29 38 -32 c43 -36 91 -41 116
-13 30 33 21 69 -29 123 l-47 49 17 53 c10 28 20 97 23 153 17 306 -115 506
-332 503 -38 0 -92 -7 -119 -14z m194 -163 c14 -10 40 -48 59 -85 37 -74 50
-165 37 -271 l-7 -55 -45 35 c-25 19 -53 34 -63 34 -26 0 -58 -27 -65 -55 -8
-31 5 -59 52 -107 l35 -37 -27 -11 c-61 -23 -123 -2 -169 58 -83 108 -80 369
6 468 45 52 133 64 187 26z"/>
</g>
</svg>
